PathFileType	4	(X/Y/Z)	Patient4_TMGait_0pt6_01_left_40.trc.trc
DataRate	CameraRate	NumFrames	NumMarkers	Units	OrigDataRate	OrigDataStartFrame	OrigNumFrames
84.337349397591	84.337349397591	5	33	mm	84.337349397591	71	       141
Frame#	Time	Sacral			L.Shoulder			Chest			R.Shoulder			Neck			R.ASIS			L.ASIS			R.Thigh.Superior			R.Thigh.Lateral			R.Thigh.Inferior			R.Patella			L.Thigh.Superior			L.Thigh.Lateral			L.Thigh.Inferior			L.Patella			L.Shank.Superior			L.Shank.Lateral			L.Shank.Inferior			R.Shank.Superior			R.Shank.Lateral			R.Shank.Inferior			R.Heel			R.Midfoot.Superior			R.Midfoot.Lateral			R.Toe			L.Heel			L.Midfoot.Lateral			L.Midfoot.Superior			L.Toe			L.Elbow			L.Wrist			R.Elbow			R.Wrist			
		X1	Y1	Z1	X2	Y2	Z2	X3	Y3	Z3	X4	Y4	Z4	X5	Y5	Z5	X6	Y6	Z6	X7	Y7	Z7	X8	Y8	Z8	X9	Y9	Z9	X10	Y10	Z10	X11	Y11	Z11	X12	Y12	Z12	X13	Y13	Z13	X14	Y14	Z14	X15	Y15	Z15	X16	Y16	Z16	X17	Y17	Z17	X18	Y18	Z18	X19	Y19	Z19	X20	Y20	Z20	X21	Y21	Z21	X22	Y22	Z22	X23	Y23	Z23	X24	Y24	Z24	X25	Y25	Z25	X26	Y26	Z26	X27	Y27	Z27	X28	Y28	Z28	X29	Y29	Z29	X30	Y30	Z30	X31	Y31	Z31	X32	Y32	Z32	X33	Y33	Z33	

71	49.530000000000	779.764922184162	1006.478895239169	440.075053219605	979.126569023632	1437.762708242864	279.527224165833	1063.732250629767	1361.163280420995	446.310012682833	965.622808983380	1430.619036678835	612.598094612595	944.180359623505	1492.615570403882	432.921030554413	997.505775640534	944.610178597753	573.374053353000	1000.370357507667	956.245775322504	297.718622773624	1071.913559795409	768.128205468712	542.531943813610	1026.365333398722	646.559873178796	611.277988995801	1110.079026410690	609.992777977743	527.374782138787	1141.172551247224	527.010037692943	541.749911085018	1001.904314490379	727.406081901306	332.331593731903	889.004575768561	632.225882471145	266.320599403381	946.100557864066	540.186475684595	334.975145649183	929.595803057795	474.386732047362	345.069621798798	897.477519277339	407.118171667966	336.419114966924	794.907975413242	302.526252300091	289.886235587361	834.414553921974	187.927173774381	361.644136500014	1127.341847547376	436.066090706468	551.828647056575	1077.625687949980	320.668905992450	614.311151361929	1145.228061527031	236.259942370720	558.251840756441	1054.602990278631	46.601727677723	527.331075415812	1213.801855941659	125.735620958930	567.008712005912	1139.173171430258	46.459687233018	600.628862749884	1340.218035710056	93.589238521359	592.831824340352	696.839434436719	38.106099590858	414.043686108353	762.093257836489	35.251322606202	326.274234293335	848.470114907472	95.656294724285	345.937728102818	972.777110780690	42.343072030243	302.912287565359	1060.554570171068	1113.762919191458	128.135251262921	1314.632329147965	1097.798235491197	157.532116021520	803.525093857834	1122.995104472744	703.588907962920	741.930442910708	871.884069765565	725.870124081319	
72	49.541857142857	781.619514880791	1004.724441215424	441.902285471711	979.534185041269	1436.012037103160	281.022758143687	1064.357041500919	1360.009984105382	447.922143024376	966.035598940493	1429.372913656239	614.139035527770	944.422977939555	1491.082126730608	434.303680074769	999.099155165724	942.648431936545	575.394148311437	1002.097485455624	954.670479964044	299.697152611443	1072.199440578486	764.483567733962	544.948504373432	1023.472896283994	642.863340617116	611.689250112776	1107.693744295503	606.123576228100	528.655194268436	1136.169210215119	522.974426208359	541.834938690582	1001.895791922359	725.431758604200	333.198650383685	887.813841751053	631.201149553736	267.681232161801	944.628686330936	538.497710058751	335.596974924738	927.655534894108	472.500975245181	345.739831956204	894.566174157643	405.683799739075	337.046352726011	790.423179466543	302.535034847079	290.380034083920	828.362177678995	187.195755658239	361.775755645940	1123.134947097327	432.015279487323	551.671627600558	1073.019649523157	316.204388669467	612.749009301970	1141.312580185105	232.428056919117	556.778852903908	1050.905236296122	44.145608839263	524.179567056898	1210.234765753130	122.093055735981	565.419735004732	1134.616584043895	43.963202379182	598.373177932310	1335.946439694678	88.883591317619	592.300566839920	689.569650246331	37.875371421426	413.890629579964	754.928925054576	34.912269824370	326.225250311854	841.351581131953	95.437054829909	345.856293050726	965.753788903313	42.093385067892	302.814894681279	1062.016509526856	1111.969050840462	130.355435561400	1315.903773453622	1099.067000885836	161.463505959399	805.947148285855	1120.465971576840	705.008162944786	746.222647188677	868.881950318264	727.220358031273	
73	49.553714285714	783.535734880494	1002.953920822606	443.939634933067	979.779697186628	1434.224936294162	282.610769857138	1065.003151565970	1358.899238380270	449.573274351642	966.538158052139	1428.069959667445	615.820536553932	944.668985379986	1489.557498139333	435.801964037611	1000.909897673643	940.657651026887	577.430597477152	1003.925396672377	953.118173308783	301.731051971252	1072.914990317293	760.920010566221	547.384327471127	1020.834586252403	639.347305552779	612.015508252754	1105.759148949724	602.430945539511	530.006220127508	1131.523166918140	518.935509638822	541.902677421056	1002.297760315975	723.518095768493	334.015803997246	887.015535318405	630.115125369312	269.190013124055	943.830593015493	536.757086468132	336.207493520512	926.511150343375	470.378391776549	346.374586061459	892.217154972679	404.093396673689	337.711648914844	786.282519914536	302.628924453888	290.949573037089	822.488480859653	186.455514339714	361.892430347270	1118.969714118569	427.977535288587	551.441949115761	1068.050201128667	312.007700043501	611.282627506263	1136.509875948073	228.523230041124	555.321477697383	1045.141685996458	42.396845034651	521.415749040016	1205.238850024857	118.000034033690	563.684487731500	1128.129868390016	41.753013857237	596.359350862068	1330.076838420129	82.824052411993	591.440680944112	682.282971737538	37.788800495731	413.673252224031	747.769566560347	34.585134096124	326.146628274122	834.302379150524	95.202576771080	345.694704809807	958.761311628302	41.798840942603	302.680564740592	1063.090469677848	1109.905995192119	132.759947936413	1316.797105202979	1099.043741664319	165.482822300877	809.040292218064	1117.500234442594	706.626123297015	752.031342474320	865.254845752371	728.718315102249	
74	49.565571428571	785.433688161235	1001.264806808189	446.144556671468	979.886114504460	1432.478314417724	284.290798189976	1065.680485942817	1357.881298667955	451.261708411999	967.153738405927	1426.772605213950	617.641494937127	944.953432382737	1488.118538199248	437.419671926261	1002.875587007530	938.727656903926	579.472416108170	1005.788460209712	951.649456201989	303.816673402456	1073.926256630637	757.504726454514	549.833038967437	1018.456321404399	636.157747787261	612.376847255433	1104.163969536593	599.021750640660	531.436731394704	1127.278033726052	515.094171870257	542.031164491348	1003.151251617207	721.757557118857	334.808570787083	886.741536826653	628.979108502023	270.843545667158	943.876037306542	535.006955117966	336.834659632712	926.356225760214	468.036205003778	346.962535177670	890.578620153426	402.372703146610	338.418676328443	782.629026399599	302.878472124867	291.591529969458	816.898851319026	185.780303278210	361.988123817218	1114.971554983775	424.150430786504	551.231968260584	1063.043255572534	308.206454413078	610.077308169985	1131.224165661230	224.736448619794	553.986005178682	1037.978556960394	41.259892656747	519.171657473369	1199.335387660706	113.741969402629	561.887759065721	1120.428628606986	39.882882383104	594.682911263531	1323.242301550714	75.991565171588	590.280819709207	675.011130232525	38.041930667236	413.377583975432	740.632893292736	34.387716871968	326.028885097684	827.382825151138	94.989436585450	345.438586427145	951.792126260782	41.439425720558	302.516391541642	1063.745512631677	1107.623678200525	135.357964351373	1317.306829028179	1097.728567044831	169.562971330452	812.780897554921	1114.207514437851	708.432990459506	759.316308807615	861.131297566606	730.361913024556	
75	49.577428571429	787.231233660714	999.767591744809	448.471903941902	979.886168417744	1430.865942288636	286.057499251849	1066.396251516555	1357.015125264599	452.983725537671	967.903406869942	1425.562877184908	619.591437440362	945.306340063692	1486.854797709551	439.153439733632	1004.917308332801	936.966505589634	581.518202196729	1007.609747538716	950.341336478979	305.956426285767	1075.081685954637	754.346407764703	552.284407449181	1016.365140505925	633.449367268823	612.889270542196	1102.801686195850	596.023490784387	532.942648597082	1123.461682906266	511.649421313591	542.304909572191	1004.491948680980	720.257640661008	335.621450269047	887.146676347566	627.811342297279	272.631378012936	944.953075757901	533.306831917420	337.513683704915	927.396740121283	465.517802311816	347.493549190490	889.820401538935	400.566980432815	339.166408520271	779.635348816276	303.377003239157	292.296072492715	811.724399196331	185.274059779481	362.055013698310	1111.232410810570	420.724124607777	551.140271610390	1058.247335227960	304.933109023195	609.269651893311	1125.782993938859	221.265100297117	552.872822445572	1030.027258473314	40.630816942495	517.506431860201	1192.943906758425	109.627359095687	560.144060773934	1112.134178301411	38.395080651857	593.401250291263	1315.954780715369	69.021503445493	588.928284535658	667.807710397908	38.891529693498	412.993345354509	733.549009045361	34.489976716254	325.863464998501	820.672735594423	94.856784892066	345.078083882245	944.833830706530	40.992747143642	302.336363727214	1063.947870620453	1105.195078960410	138.161459604033	1317.406397372556	1095.124996536984	173.673464334308	817.163083599014	1110.708649710041	710.407945204534	768.040333200139	856.663783294432	732.143427253247	
